<svg xmlns="http://www.w3.org/2000/svg" viewBox="0 0 646.5 96.5"><path fill-rule="evenodd" clip-rule="evenodd" fill="#81DB34" d="M317.5 9.1h44c11 0 20.9 4.5 28.2 11.7C396.9 28 401.4 38 401.4 49s-4.5 20.9-11.7 28.2c-7.2 7.2-17.2 11.7-28.2 11.7h-44c-11 0-20.9-4.5-28.2-11.7C282.1 70 277.6 60 277.6 49s4.5-20.9 11.7-28.2c7.2-7.2 17.2-11.7 28.2-11.7zm44 20h-44c-5.5 0-10.4 2.2-14 5.8-3.6 3.6-5.8 8.6-5.8 14 0 5.5 2.2 10.4 5.8 14 3.6 3.6 8.6 5.8 14 5.8h44c5.5 0 10.4-2.2 14-5.8 3.6-3.6 5.8-8.6 5.8-14 0-5.5-2.2-10.4-5.8-14-3.6-3.6-8.6-5.8-14-5.8zM125.4 58.8H66.1c-6.8 0-12.9-2.8-17.3-7.3s-7.2-10.6-7.2-17.4c0-6.8 2.7-12.9 7.2-17.4 4.5-4.5 10.6-7.3 17.4-7.3h78v20h-78c-1.2 0-2.3.5-3.1 1.3-.8.9-1.4 2.1-1.4 3.4 0 1.4.5 2.6 1.4 3.4.8.8 1.9 1.3 3.1 1.3h59.3c6.8 0 12.9 2.8 17.4 7.3 4.4 4.5 7.2 10.6 7.2 17.4s-2.7 12.9-7.2 17.4c-4.5 4.5-10.6 7.3-17.4 7.3h-78v-20h78c1.2 0 2.3-.5 3.1-1.3.8-.9 1.4-2.1 1.4-3.4 0-1.4-.5-2.6-1.4-3.4-.8-.7-1.9-1.2-3.2-1.3zM7.1 9.4h20v78.9h-20zm587.5 20v58.9h-20V29.4h-43v-20h107v20zM239.8 9.3c8.1 0 15.4 3.3 20.7 8.6 5.3 5.3 8.6 12.6 8.6 20.7s-3.3 15.4-8.6 20.7c-5.3 5.3-12.6 8.6-20.7 8.6h-58.3v20.5h-20v-79c26.1-.1 52.2-.1 78.3-.1zm-58.3 20v18.5h58.3c2.5 0 4.9-1 6.5-2.7 1.7-1.7 2.7-4 2.7-6.5s-1-4.9-2.7-6.5c-1.7-1.7-4-2.7-6.5-2.7h-58.3zm254 0v18.5h58.3c2.5 0 4.9-1 6.5-2.7 1.7-1.7 2.7-4 2.7-6.5s-1-4.9-2.7-6.5c-1.7-1.7-4-2.7-6.5-2.7h-58.3v-.1zm0 38.6v20.5h-20v-79c26 0 52.2-.1 78.3-.1 8.1 0 15.4 3.3 20.7 8.6 5.3 5.3 8.6 12.6 8.6 20.7s-3.3 15.4-8.6 20.7c-2.2 2.2-4.8 4.1-7.6 5.5l13.6 23.5h-23l-11.8-20.5h-50.2z"/></svg>